<?xml version="1.0" encoding="UTF-8"?>
<svg id="Capa_1" xmlns="http://www.w3.org/2000/svg" version="1.1" viewBox="0 0 384 384">
  <!-- Generator: Adobe Illustrator 29.7.1, SVG Export Plug-In . SVG Version: 2.1.1 Build 8)  -->
  <defs>
    <style>
      .st0 {
        fill: #c85d35;
      }

      .st1 {
        display: none;
      }
    </style>
  </defs>
  <g class="st1">
    <path d="M39.93,137.24c16.4-13.64,32.19-28.11,49.22-40.97,26.07-19.69,66.15-50.56,83.04-3.1,11.63,32.7,17.06,71.27,27.3,105.19,2.17,7.18,4.49,16.33,7.73,22.96,3.75,7.68,4.51,6.59,9.84.6,10.93-12.31,33.72-49.44,39.31-64.73,6.46-17.68-2.32-26.55-20.11-25.34-5.03.34-16.44,5.32-17.66-2.77-.68-4.5,5.7-17.35,8.08-21.78,15.86-29.56,42.74-46.05,76.88-43.69,51.04,3.52,45.73,63.36,31.38,98.07-18.19,44.02-74.88,120.51-114.78,146.46-12.51,8.13-34.77,19.14-48.99,10.62-21.61-12.94-41.73-73.86-49.36-98.1-5.83-18.51-14.46-60.91-26.02-74.29-6.94-8.03-13.35-4.77-21.44-.52-5.14,2.69-18.34,13.7-22.73,13.28-4.65-.45-14.55-12.37-14.03-17.1.14-1.31,1.46-3.74,2.34-4.78h0Z"/>
  </g>
  <path class="st0" d="M141.67,157.91c-1.23,2.09,7.61,19.91,9.29,22.98,15.68,28.57,42.91,51.57,74.09,61.34l1.27-.57c7.07-7.42,16.24-23.43,27.26-24.36,12.68-1.07,39.27,15.99,50.45,23.09,7.75,4.92,25.99,15.89,30.15,23.29,2.86,5.09,3.8,9.04,1.59,14.54-6.18,15.39-50.27,51.25-65.85,58.05-7.64,3.34-15.96.97-23.91-.82-82.69-18.55-187.68-122.22-199.64-207.27-.9-6.42-1.43-8.7,1.33-14.73,7.25-15.82,41.51-58.06,57-65.08,10.25-4.64,18.01,1.9,23.99,9.64,8.52,11.03,17.64,25.84,24.51,38.04,7.09,12.58,19.43,30.96,8.71,44.14-5.31,6.53-13.95,12.05-20.24,17.72h0Z"/>
  <g class="st1">
    <path d="M280.46,336.24c-2.1,0-3.79-1.7-3.79-3.79l.03-100.25c-1.16-23.74-7.14-43.36-35.2-41.52-24.39,1.59-31.13,20.83-32.31,42.24l.03,100.24c0,2.1-1.7,3.79-3.79,3.79h-52.76c-2.1,0-3.79-1.7-3.79-3.79v-186.94c0-2.1,1.7-3.79,3.79-3.79h50.63c2.1,0,3.79,1.7,3.79,3.79v23.18l9.56-12.8c19.5-19.25,49.88-22.43,75.47-15.07,31.94,9.18,41.37,36.86,44.18,67.29l.7,123.62c.01,2.1-1.69,3.82-3.79,3.82h-52.74v-.02Z"/>
    <rect x="50.9" y="142.41" width="60.35" height="194.53" rx="4" ry="4"/>
    <circle cx="80.95" cy="81.02" r="34.96"/>
  </g>
  <g class="st1">
    <path d="M50.16,152.97c0-3.38,3.77-5.4,6.59-3.53l111.26,74.05c15.26,10.57,34.87,10.59,50.15,0l111.26-74.05c2.82-1.87,6.59.14,6.59,3.53v123.08c0,11.64-15.01,23.89-26.49,23.21l-234.5-.04c-9.32-.99-17.9-6.28-22.16-14.7l-2.69-8.2v-123.36h-.01Z"/>
    <path d="M50.16,114.9c-.21-1.67-.21-5.58,0-7.26,1.44-11.78,12.19-21.34,23.77-22.78.72-.09,1.44-.11,2.16-.11l233.5-.03c.69,0,1.37.02,2.05.1,25.26,2.8,33.68,34.55,11.69,48.42-38.4,23.46-75.02,52.86-113.56,75.75-11.02,6.54-18.89,8.23-30.61,1.68l-119.11-79.93c-2.62-1.76-4.84-4.07-6.42-6.8-1.74-3-3.16-6.45-3.48-9.03h.01Z"/>
  </g>
</svg>